<?xml version="1.0" standalone="no"?>
<!DOCTYPE svg PUBLIC "-//W3C//DTD SVG 20010904//EN"
 "http://www.w3.org/TR/2001/REC-SVG-20010904/DTD/svg10.dtd">
<svg version="1.0" xmlns="http://www.w3.org/2000/svg"
 width="1063.000000pt" height="1280.000000pt" viewBox="0 0 1063.000000 1280.000000"
 preserveAspectRatio="xMidYMid meet">
<g transform="translate(0.000000,1280.000000) scale(0.100000,-0.100000)"
fill="#000000" stroke="none">
<path d="M5535 12779 c-147 -41 -252 -111 -327 -222 l-41 -60 -146 6 c-80 4
-375 20 -656 37 -280 16 -565 33 -631 36 l-122 7 -15 -69 c-59 -258 -46 -468
39 -636 29 -57 10 -55 269 -28 623 64 1287 130 1311 130 17 0 43 -12 62 -28
l33 -27 -1 -765 c0 -706 -1 -766 -17 -777 -12 -9 -67 -13 -190 -13 l-173 0 -2
-427 -3 -428 -155 -5 -155 -5 -5 -225 -5 -225 -65 -3 c-36 -2 -68 -8 -72 -15
-4 -7 -8 -76 -8 -153 0 -116 3 -144 15 -154 11 -9 13 -16 5 -24 -7 -7 -10
-197 -10 -576 l0 -566 -193 -192 -193 -192 -666 0 c-521 0 -668 3 -675 13 -5
6 -15 31 -22 54 l-12 43 -457 2 -457 3 -62 175 c-35 100 -69 180 -80 188 -14
10 -66 12 -240 10 -122 -2 -224 -5 -227 -8 -3 -3 -12 -70 -20 -148 -8 -78 -18
-147 -21 -152 -4 -6 -185 -10 -490 -10 -403 0 -486 -2 -498 -14 -18 -19 -72
-269 -102 -471 -63 -435 -66 -743 -9 -1185 16 -127 75 -432 96 -495 l13 -40
500 -5 500 -5 7 -55 c4 -30 11 -100 15 -155 l8 -100 237 -3 c218 -2 238 -1
246 15 5 10 26 90 47 178 20 88 41 166 47 172 8 10 121 13 481 15 l471 3 26
105 25 105 528 3 527 2 90 -45 c377 -189 887 -315 1475 -365 180 -15 674 -12
865 5 567 50 1004 158 1402 346 l126 60 39 -16 c101 -42 148 -151 155 -360 l3
-79 -120 -64 c-161 -86 -245 -143 -299 -203 -40 -45 -46 -57 -46 -97 0 -56
304 -1041 327 -1059 21 -16 171 -51 333 -75 192 -30 508 -30 705 0 305 47 555
126 840 267 301 148 554 327 796 562 96 94 117 118 109 132 -5 10 -70 218
-144 462 -153 501 -136 467 -268 534 -126 63 -298 83 -515 62 -97 -10 -81 -28
-138 158 -148 481 -431 929 -702 1113 -87 59 -109 69 -565 251 -280 112 -448
184 -494 213 -38 25 -90 52 -116 62 -63 23 -248 140 -489 308 l-197 137 -6 78
c-3 43 -10 251 -16 463 -6 212 -13 399 -16 417 -4 28 -9 32 -42 35 l-37 3 -2
140 c-4 194 1 183 -81 187 l-67 3 -3 222 c-3 261 20 232 -182 236 l-135 2 -3
428 -2 427 -196 0 c-115 0 -203 4 -215 10 -19 10 -19 29 -19 761 l0 751 58 54
c35 33 63 52 72 48 16 -6 127 -12 870 -44 256 -11 531 -23 612 -26 l148 -7 20
45 c67 151 68 357 4 641 -15 65 -16 67 -47 67 -28 0 -821 -90 -1329 -150 -240
-29 -230 -30 -268 30 -71 111 -193 193 -344 230 -95 24 -139 24 -231 -1z"/>
<path d="M9205 2992 c-54 -132 -186 -565 -245 -802 -99 -403 -134 -658 -134
-980 0 -217 3 -257 23 -349 42 -195 119 -347 223 -435 113 -98 263 -141 458
-133 285 12 535 101 675 242 127 126 171 257 162 475 -15 351 -218 805 -601
1344 -169 238 -459 588 -527 637 -25 18 -27 18 -34 1z"/>
</g>
</svg>
