<svg height="512" viewBox="0 0 512 512" width="512" xmlns="http://www.w3.org/2000/svg"><g id="Filled_outline" data-name="Filled outline"><path d="m488 88v400l-112-24-59.17 11.84-47.14 9.42-13.69 2.74-36.02-7.2-57.51-11.51-26.47-5.29-17.17 3.68-94.83 20.32v-400l14.93-3.2 97.07-20.8 1.54.31 49.12 9.82 56.58 11.32 12.76 2.55 38.63-7.72 81.37-16.28 27.48 5.89 64.22 13.76z" fill="#348ed8"/><path d="m488 98.51-87.57 87.57 87.57 87.57v56.56l-115.85-115.85-158.4 158.4 103.08 103.08-47.14 9.42-84.22-84.22-66.64 66.64-94.83 20.32v-38.63l104.9-104.9-104.9-104.9v-56.57l133.19 133.19 158.39-158.4-72.34-72.34 12.76 2.55 38.63-7.72 49.23 49.23 59.62-59.62 64.22 13.76 20.3 4.35z" fill="#4db6e4"/><g fill="#79c5e7"><path d="m173.754 117.795h80v80h-80z" transform="matrix(.707 .707 -.707 .707 174.185 -104.93)"/><path d="m272.264 340.755h64v64h-64z" transform="matrix(.707 .707 -.707 .707 352.695 -105.97)"/><path d="m83.65 344.47-45.26 45.26-14.39-14.39v-90.52z"/><path d="m133.186 212.991h48v48h-48z" transform="matrix(.707 .707 -.707 .707 213.616 -41.734)"/><path d="m111.93 157.79-33.94 33.95-53.99-53.99v-49.75l14.93-3.2z"/><path d="m219.98 480.8-57.51-11.51 23-23z"/><path d="m348.146 269.559h48v48h-48z" transform="matrix(.707 .707 -.707 .707 316.577 -177.166)"/><path d="m488 160.51v51.14l-8.37 8.37-33.94-33.94 33.94-33.94z"/></g><path d="m166.7 93.02-30.7 42.98-30.7-42.98a49.925 49.925 0 0 1 -9.3-29.02 40 40 0 0 1 40-40 40 40 0 0 1 40 40 49.925 49.925 0 0 1 -9.3 29.02z" fill="#d65246"/><path d="m438.7 93.02-30.7 42.98-30.7-42.98a49.925 49.925 0 0 1 -9.3-29.02 40 40 0 0 1 40-40 40 40 0 0 1 40 40 49.925 49.925 0 0 1 -9.3 29.02z" fill="#d65246"/><path d="m334.7 325.02-30.7 42.98-30.7-42.98a49.925 49.925 0 0 1 -9.3-29.02 40 40 0 0 1 40-40 40 40 0 0 1 40 40 49.925 49.925 0 0 1 -9.3 29.02z" fill="#d65246"/><path d="m454.7 397.02-30.7 42.98-30.7-42.98a49.925 49.925 0 0 1 -9.3-29.02 40 40 0 0 1 40-40 40 40 0 0 1 40 40 49.925 49.925 0 0 1 -9.3 29.02z" fill="#d65246"/><path d="m142.7 389.02-30.7 42.98-30.7-42.98a49.925 49.925 0 0 1 -9.3-29.02 40 40 0 0 1 40-40 40 40 0 0 1 40 40 49.925 49.925 0 0 1 -9.3 29.02z" fill="#d65246"/><path d="m489.677 80.178-20.3-4.35-3.354 15.644 13.977 3v.728l-85.228 85.227a8 8 0 0 0 0 11.314l85.228 85.223v33.936l-102.192-102.2a8 8 0 0 0 -11.315 0l-43.309 43.309a47.978 47.978 0 0 0 -67.184 43.991 57.743 57.743 0 0 0 3.453 19.743l-51.36 51.36a8 8 0 0 0 0 11.314l92.507 92.505-28.276 5.655-81.195-81.194a8 8 0 0 0 -11.315 0l-64.968 64.969-82.846 17.748v-25.42l49.55-49.55 23.94 33.516a8 8 0 0 0 13.02 0l30.7-42.981a57.6 57.6 0 0 0 10.79-33.665 48.054 48.054 0 0 0 -48-48c-1.372 0-2.728.072-4.071.185l-75.929-75.929v-33.942l119.533 119.533a8 8 0 0 0 11.315 0l158.389-158.4a8 8 0 0 0 0-11.314l-57.519-57.519 28.276-5.656 46.206 46.209a8 8 0 0 0 11.315 0l28.032-28.033 23.94 33.516a8 8 0 0 0 13.02 0l30.7-42.981a57.6 57.6 0 0 0 10.793-33.669 48 48 0 0 0 -95.737-5.015l-104.263 20.857-54.431-10.888-3.138 15.69 40.861 8.173 64.975 64.973-147.077 147.086-125.19-125.19v-3.686h-16v312a8 8 0 0 0 9.676 7.822l110.381-23.653 118.375 23.676a7.987 7.987 0 0 0 3.138 0l118.374-23.675 110.38 23.653a8 8 0 0 0 9.676-7.823v-56h-16v46.1l-102.324-21.922a7.989 7.989 0 0 0 -3.245-.022l-54.976 11-94.392-94.396 42.3-42.3 9.427 13.2-23.438 23.44a8 8 0 0 0 0 11.313l45.25 45.25a8 8 0 0 0 11.313 0l45.26-45.25a8 8 0 0 0 0-11.314l-23.745-23.745 9.778-13.689a57.928 57.928 0 0 0 7.473-14.322l17.81 17.81a8 8 0 0 0 11.315 0l33.939-33.94a8 8 0 0 0 0-11.314l-33.939-33.94a8 8 0 0 0 -11.315 0l-19.915 19.916a48.255 48.255 0 0 0 -9.766-12.866l35.338-35.34 107.852 107.855v82.476h16v-328a8 8 0 0 0 -6.323-7.822zm-81.677-48.178a32.036 32.036 0 0 1 32 32 41.687 41.687 0 0 1 -7.81 24.37l-24.19 33.866-24.19-33.866a41.687 41.687 0 0 1 -7.81-24.37 32.036 32.036 0 0 1 32-32zm-46.93 43.14a57.46 57.46 0 0 0 7.183 18.66l-24.393 24.4-33.01-33.01zm-249.07 252.86a32.036 32.036 0 0 1 32 32 41.687 41.687 0 0 1 -7.81 24.37l-24.19 33.866-24.19-33.866a41.687 41.687 0 0 1 -7.81-24.37 32.036 32.036 0 0 1 32-32zm-80-69.116 58.315 58.316a48.247 48.247 0 0 0 -12.975 9.646l-45.34-45.34zm0 45.25 36.221 36.221a47.592 47.592 0 0 0 -3.569 11.8l-26.262 26.261-6.39-6.39zm0 90.52.732.733a8 8 0 0 0 11.315 0l21.607-21.607a57.494 57.494 0 0 0 6.6 16.023l-40.254 40.253zm163.623 73.112-16.923-3.388 6.775-6.774 10.166 10.165zm28.3 5.66-32.794-32.793a8 8 0 0 0 -11.315 0l-19.975 19.976-18.852-3.77 44.485-44.485 66.728 66.728zm148.227-202.492 22.626 22.626-22.626 22.627-20.15-20.151v-.036c0-1.581-.082-3.142-.232-4.684zm-33.945 101.825-33.944 33.941-33.939-33.938 15.892-15.9 11.276 15.788a8 8 0 0 0 13.02 0l11.49-16.092zm-10.015-52.389-24.19 33.866-24.19-33.866a41.687 41.687 0 0 1 -7.81-24.37 32 32 0 0 1 64 0 41.687 41.687 0 0 1 -7.81 24.37zm151.81-112.034-.37.371-22.63-22.627 22.627-22.626.37.37zm0-64.178a7.97 7.97 0 0 0 -6.027 2.325l-33.941 33.94a8 8 0 0 0 0 11.314l33.941 33.94a7.974 7.974 0 0 0 5.657 2.343c.123 0 .246-.012.37-.018v26.334l-68.257-68.256 68.257-68.256zm-448 12.906 40.333 40.336a8 8 0 0 0 11.314 0l33.941-33.95a8 8 0 0 0 0-11.313l-62.6-62.591 18.689-4-3.353-15.653-33.05 7.081h-.021l-14.93 3.2a8 8 0 0 0 -6.323 7.826v72h16zm0-62.6 4.351-.932 64.265 64.257-22.627 22.636-45.989-45.989zm181.755 127.9a7.974 7.974 0 0 0 5.657-2.343l56.568-56.568a8 8 0 0 0 0-11.314l-56.568-56.57a8 8 0 0 0 -11.314 0l-56.57 56.569a8 8 0 0 0 0 11.314l56.572 56.568a7.974 7.974 0 0 0 5.655 2.343zm0-109.823 45.255 45.255-45.255 45.254-45.255-45.255zm-56.569 82.51a8 8 0 0 0 -5.658 2.343l-33.94 33.941a8 8 0 0 0 0 11.313l33.94 33.942a8 8 0 0 0 11.315 0l33.941-33.942a8 8 0 0 0 0-11.313l-33.941-33.941a8 8 0 0 0 -5.657-2.344zm0 64.568-22.627-22.627 22.627-22.628 22.627 22.628zm162.814 36.381a16 16 0 1 1 -16-16 16.019 16.019 0 0 1 16 16zm-224 64a16 16 0 1 1 16 16 16.019 16.019 0 0 1 -16-16zm280 8a57.6 57.6 0 0 0 10.79 33.669l30.7 42.981a8 8 0 0 0 13.02 0l30.7-42.981a57.6 57.6 0 0 0 10.79-33.669 48 48 0 0 0 -96 0zm80 0a41.687 41.687 0 0 1 -7.81 24.37l-24.19 33.866-24.19-33.866a41.687 41.687 0 0 1 -7.81-24.37 32 32 0 0 1 64 0zm-32-16a16 16 0 1 1 -16 16 16.019 16.019 0 0 1 16-16zm-288-336a48.054 48.054 0 0 0 -48 48 57.6 57.6 0 0 0 10.79 33.669l30.7 42.981a8 8 0 0 0 13.02 0l30.7-42.981a57.6 57.6 0 0 0 10.79-33.669 48.054 48.054 0 0 0 -48-48zm24.19 72.37-24.19 33.866-24.19-33.866a41.687 41.687 0 0 1 -7.81-24.37 32 32 0 0 1 64 0 41.687 41.687 0 0 1 -7.81 24.37zm-8.19-24.37a16 16 0 1 1 -16-16 16.019 16.019 0 0 1 16 16zm240 0a16 16 0 1 1 16 16 16.019 16.019 0 0 1 -16-16z"/></g></svg>