<svg id="Capa_1" enable-background="new 0 0 512 512" height="512" viewBox="0 0 512 512" width="512" xmlns="http://www.w3.org/2000/svg"><g><g><path d="m91 406h30v106h-30z" fill="#5b5555"/></g><path d="m106 406h15v106h-15z" fill="#463f3f"/><path d="m256 0c-99.258 0-180 81.742-180 181 0 98.923 105.919 247.006 168.735 318.197l11.265 12.803 11.265-12.788c63.843-72.863 168.735-219.802 168.735-318.212 0-99.258-80.742-181-180-181z" fill="#ff8066"/><path d="m436 181c0-99.258-80.742-181-180-181v512l11.265-12.788c63.843-72.863 168.735-219.802 168.735-318.212z" fill="#fd435b"/><path d="m256 76c-57.891 0-105 47.109-105 105s47.109 105 105 105 105-47.109 105-105-47.109-105-105-105zm0 180c-41.353 0-75-33.647-75-75 0-15.26 4.634-29.436 12.495-41.294l62.505 62.505 41.294 41.294c-11.858 7.861-26.034 12.495-41.294 12.495zm62.505-33.706-62.505-62.505-41.294-41.294c11.858-7.861 26.034-12.495 41.294-12.495 41.353 0 75 33.647 75 75 0 15.26-4.634 29.436-12.495 41.294z" fill="#f0f7ff"/><path d="m361 181c0-57.891-47.109-105-105-105v30c41.353 0 75 33.647 75 75 0 15.26-4.634 29.436-12.495 41.294l-62.505-62.505v42.422l41.294 41.294c-11.858 7.861-26.034 12.495-41.294 12.495v30c57.891 0 105-47.109 105-105z" fill="#dfe7f4"/><g><path d="m0 301v120h211v-120z" fill="#f0f7ff"/></g><path d="m106 301h105v120h-105z" fill="#dfe7f4"/><g><path d="m391 406h30v106h-30z" fill="#5b5555"/></g><path d="m406 406h15v106h-15z" fill="#463f3f"/><g><path d="m301 301v120h211v-120z" fill="#f0f7ff"/></g><path d="m406 301h106v120h-106z" fill="#dfe7f4"/></g></svg>