<?xml version="1.0"?>
<svg xmlns="http://www.w3.org/2000/svg" xmlns:xlink="http://www.w3.org/1999/xlink" xmlns:svgjs="http://svgjs.com/svgjs" version="1.1" width="512" height="512" x="0" y="0" viewBox="0 0 512 512" style="enable-background:new 0 0 512 512" xml:space="preserve" class=""><g><g xmlns="http://www.w3.org/2000/svg"><path d="m469.762 69.653c-20.188-34.32-40.054-62.201-40.89-63.372-2.815-3.942-7.361-6.281-12.205-6.281s-9.39 2.339-12.206 6.281c-.836 1.17-20.702 29.052-40.89 63.372-28.422 48.316-42.238 82.994-42.238 106.014 0 52.567 42.767 95.333 95.333 95.333s95.334-42.767 95.334-95.333c0-23.02-13.816-57.698-42.238-106.014z" fill="#c13838" data-original="#27547c" style="" class=""/><path d="m148.429 149.986c-20.188-34.32-40.054-62.201-40.89-63.372-2.816-3.942-7.362-6.281-12.206-6.281s-9.39 2.339-12.206 6.281c-.836 1.17-20.702 29.052-40.89 63.372-28.421 48.317-42.237 82.994-42.237 106.014 0 52.567 42.767 95.333 95.333 95.333s95.333-42.767 95.333-95.333c.001-23.02-13.815-57.697-42.237-106.014z" fill="#a71111" data-original="#418bb3" style="" class=""/><path d="m256 512c-96.863 0-175.667-78.804-175.667-175.667 0-42.689 27.725-111.467 82.404-204.422 40.04-68.068 80.651-125.062 81.056-125.63 2.817-3.942 7.363-6.281 12.207-6.281s9.39 2.339 12.206 6.281c.405.568 41.016 57.562 81.056 125.63 54.68 92.955 82.404 161.733 82.404 204.422.001 96.863-78.803 175.667-175.666 175.667z" fill="#f14444" data-original="#5bc1eb" style="" class=""/><path d="m256 512v-512c4.844 0 9.39 2.339 12.206 6.281.405.568 41.016 57.562 81.056 125.63 54.68 92.955 82.404 161.733 82.404 204.422.001 96.863-78.803 175.667-175.666 175.667z" fill="#a71111" data-original="#418bb3" style="" class=""/></g></g></svg>
