<svg id="Capa_1" enable-background="new 0 0 512 512" height="512" viewBox="0 0 512 512" width="512" xmlns="http://www.w3.org/2000/svg"><g><path d="m312.834 89.085 105.336-.136v-56.407c0-17.972-14.57-32.542-32.543-32.542-37.127 0-48.455 54.486-72.793 89.085z" fill="#abc4c9"/><g><path d="m256.542 0h-130.17c-17.972 0-32.542 14.57-32.542 32.542v479.458l43.401-21.695 43.379 21.684 43.39-21.679z" fill="#e8f1f1"/><path d="m385.627 0h-129.085c-17.972 0-32.542 14.57-32.542 32.542v457.768l.011-.005 43.379 21.684 43.401-21.684 43.379 21.684v-479.447c0-17.972 14.569-32.542 32.542-32.542z" fill="#d3e0e4"/></g><g><path d="m166.509 335.084v30h42.491v26.22h15l10-32.804-10-23.416z" fill="#00cc76"/><path d="m197.577 234.914h26.423l10-28.11-10-28.111h-15v26.221h-41.423v95.085h56.423l10-16.249-10-13.751h-26.423z" fill="#00cc76"/><g fill="#009986"><path d="m281.491 234.914v-30h-42.491v-26.221h-15v56.221z"/><path d="m250.423 299.999v35.085h-26.423v56.22h15v-26.22h41.423v-95.085h-56.423v30z"/></g></g><g><path d="m209 51.356v30h15l10-15-10-15z" fill="#09607d"/><path d="m224 51.356h15v30h-15z" fill="#07485e"/></g><path d="m179 81.356h30v30h-30z" fill="#09607d"/><path d="m239 81.356h30v30h-30z" fill="#07485e"/><path d="m149 51.356h30v30h-30z" fill="#09607d"/><path d="m269 51.356h30v30h-30z" fill="#07485e"/></g></svg>