<?xml version="1.0" encoding="iso-8859-1"?>
<!-- Generator: Adobe Illustrator 19.0.0, SVG Export Plug-In . SVG Version: 6.00 Build 0)  -->
<svg version="1.1" id="Capa_1" xmlns="http://www.w3.org/2000/svg" xmlns:xlink="http://www.w3.org/1999/xlink" x="0px" y="0px"
	 viewBox="0 0 497.371 497.371" style="enable-background:new 0 0 497.371 497.371;" xml:space="preserve">
<path style="fill:#A5C3D1;" d="M482.743,286.72v-76.069l-51.2-10.24c-4.389-16.091-11.703-32.183-19.017-46.811l29.257-43.886
	l-54.126-52.663l-43.886,29.257c-14.629-8.777-30.72-14.629-46.811-19.017l-10.24-51.2h-76.069l-10.24,49.737
	c-16.091,4.389-32.183,10.24-46.811,19.017l-43.886-29.257l-52.663,54.126L86.309,153.6c-8.777,14.629-14.629,30.72-19.017,46.811
	l-51.2,10.24v76.069l49.737,10.24c4.389,16.091,10.24,32.183,19.017,46.811l-29.257,43.886l54.126,52.663l43.886-29.257
	c14.629,8.777,30.72,14.629,46.811,19.017l10.24,51.2h76.069l10.24-51.2c16.091-4.389,32.183-11.703,46.811-19.017l43.886,29.257
	l54.126-54.126l-29.257-43.886c8.777-14.629,14.629-30.72,19.017-46.811L482.743,286.72z"/>
<path style="fill:#010101;" d="M286.72,497.371h-76.069c-7.314,0-13.166-4.389-14.629-11.703l-8.777-42.423
	c-11.703-2.926-23.406-8.777-33.646-14.629l-36.571,23.406c-5.851,4.389-13.166,2.926-19.017-1.463l-54.126-54.126
	c-4.389-4.389-5.851-13.166-1.463-19.017l26.331-33.646c-5.851-10.24-10.24-21.943-14.629-33.646l-42.423-8.777
	C4.389,299.886,0,294.034,0,286.72v-76.069c0-7.314,4.389-13.166,11.703-14.629l42.423-8.777
	c2.926-11.703,8.777-23.406,14.629-33.646l-24.869-35.109c-2.926-5.851-2.926-14.629,2.926-19.017l54.126-54.126
	c4.389-4.389,13.166-5.851,19.017-1.463L153.6,68.754c10.24-5.851,21.943-10.24,33.646-14.629l8.777-42.423
	C197.486,4.389,203.337,0,210.651,0h76.069c7.314,0,13.166,4.389,14.629,11.703l8.777,42.423
	c11.703,2.926,23.406,8.777,33.646,14.629l36.571-23.406c5.851-4.389,13.166-2.926,19.017,1.463l54.126,54.126
	c4.389,4.389,5.851,13.166,1.463,19.017L428.617,153.6c5.851,10.24,10.24,21.943,14.629,33.646l42.423,8.777
	c7.314,1.463,11.703,7.314,11.703,14.629v76.069c0,7.314-4.389,13.166-11.703,14.629l-42.423,8.777
	c-2.926,11.703-8.777,23.406-14.629,33.646l23.406,36.571c4.389,5.851,2.926,13.166-1.463,19.017l-54.126,54.126
	c-4.389,4.389-13.166,5.851-19.017,1.463l-33.646-26.331c-10.24,5.851-21.943,10.24-33.646,14.629l-8.777,42.423
	C299.886,492.983,294.034,497.371,286.72,497.371z M222.354,468.114h51.2l7.314-39.497c1.463-5.851,5.851-10.24,10.24-11.703
	c14.629-4.389,29.257-10.24,43.886-17.554c4.389-2.926,10.24-2.926,16.091,0l33.646,21.943l36.571-36.571l-21.943-33.646
	c-2.926-4.389-2.926-10.24,0-16.091c7.314-13.166,14.629-27.794,17.554-43.886c1.463-5.851,5.851-10.24,11.703-10.24l39.497-7.314
	v-51.2l-39.497-7.314c-5.851-1.463-10.24-5.851-11.703-10.24c-4.389-14.629-10.24-29.257-17.554-43.886
	c-2.926-4.389-2.926-10.24,0-16.091l21.943-33.646l-36.571-36.571l-33.646,21.943c-4.389,2.926-10.24,2.926-16.091,0
	c-13.166-7.314-27.794-14.629-43.886-17.554c-5.851-1.463-10.24-5.851-10.24-11.703l-7.314-39.497h-51.2l-7.314,39.497
	c-1.463,5.851-5.851,10.24-10.24,11.703c-14.629,4.389-29.257,10.24-43.886,17.554c-4.389,2.926-10.24,2.926-16.091,0
	l-33.646-21.943l-36.571,36.571l21.943,33.646c2.926,4.389,2.926,10.24,0,16.091C89.234,174.08,81.92,188.709,78.994,204.8
	c-1.463,5.851-5.851,10.24-11.703,10.24l-39.497,7.314v51.2l39.497,7.314c5.851,1.463,10.24,5.851,11.703,10.24
	c4.389,14.629,10.24,29.257,17.554,43.886c2.926,4.389,2.926,10.24,0,16.091l-21.943,33.646l36.571,36.571l33.646-21.943
	c4.389-2.926,10.24-2.926,16.091,0c13.166,7.314,27.794,14.629,43.886,17.554c5.851,1.463,10.24,5.851,10.24,11.703L222.354,468.114
	z"/>
<path style="fill:#FFFFFF;" d="M381.806,248.686c0,62.903-42.423,115.566-100.937,130.194c-10.24,2.926-21.943,4.389-33.646,4.389
	c-13.166,0-26.331-1.463-39.497-5.851c-54.126-16.091-95.086-67.291-95.086-127.269c0-74.606,59.977-133.12,133.12-133.12
	S381.806,174.08,381.806,248.686z"/>
<path style="fill:#FFCA19;" d="M329.143,247.223c-1.463,32.183-20.48,58.514-46.811,70.217v59.977
	c-10.24,2.926-21.943,4.389-33.646,4.389c-13.166,0-26.331-1.463-39.497-5.851l1.463-61.44
	c-26.331-14.629-43.886-42.423-42.423-73.143c1.463-32.183,20.48-58.514,46.811-70.217l-2.926,67.291
	c0,4.389,2.926,8.777,7.314,8.777l55.589,1.463c4.389,0,8.777-2.926,8.777-7.314l2.926-67.291
	C313.051,187.246,330.606,215.04,329.143,247.223z"/>
<g>
	<path style="fill:#010101;" d="M248.686,396.434c-14.629,0-29.257-1.463-43.886-5.851
		c-62.903-19.017-105.326-76.069-105.326-141.897c0-81.92,67.291-147.749,147.749-147.749c81.92,0,147.749,67.291,147.749,147.749
		c0,67.291-45.349,127.269-111.177,143.36C273.554,394.971,261.851,396.434,248.686,396.434z M248.686,128.731
		c-65.829,0-118.491,54.126-118.491,118.491c0,52.663,33.646,98.011,84.846,114.103c20.48,5.851,43.886,7.314,64.366,1.463
		c52.663-13.166,89.234-61.44,89.234-115.566C367.177,182.857,314.514,128.731,248.686,128.731z"/>
	<path style="fill:#010101;" d="M248.686,396.434c-14.629,0-29.257-1.463-43.886-5.851c-5.851-1.463-10.24-7.314-10.24-14.629
		v-52.663c-27.794-19.017-43.886-49.737-42.423-81.92c1.463-36.571,21.943-68.754,55.589-83.383
		c4.389-1.463,10.24-1.463,14.629,1.463c4.389,2.926,7.314,7.314,5.851,13.166l-1.463,61.44l43.886,1.463l1.463-61.44
		c0-4.389,2.926-10.24,7.314-11.703c4.389-2.926,10.24-2.926,14.629,0c32.183,17.554,51.2,51.2,49.737,86.309
		c-1.463,33.646-19.017,62.903-46.811,78.994v51.2c0,5.851-4.389,11.703-10.24,14.629
		C273.554,394.971,261.851,396.434,248.686,396.434z M223.817,365.714c14.629,2.926,29.257,2.926,43.886,1.463v-48.274
		c0-5.851,2.926-10.24,8.777-13.166c23.406-10.24,38.034-32.183,38.034-58.514c0-16.091-4.389-30.72-13.166-42.423l-1.463,36.571
		c0,11.703-10.24,21.943-21.943,21.943l-57.051-1.463c-5.851,0-11.703-2.926-16.091-7.314c-4.389-4.389-5.851-10.24-5.851-16.091
		l1.463-38.034c-11.703,11.703-17.554,26.331-17.554,42.423c-1.463,24.869,13.166,48.274,35.109,59.977
		c4.389,2.926,7.314,7.314,7.314,13.166L223.817,365.714z"/>
</g>
<g style="opacity:0.1;">
	<path style="fill:#030303;" d="M440.32,109.714l-21.943,33.646c-20.48-4.389-40.96-5.851-61.44-5.851
		c-124.343,0-232.594,70.217-286.72,174.08c-1.463-4.389-2.926-8.777-4.389-14.629l-51.2-10.24v-76.069l51.2-10.24
		c4.389-16.091,10.24-32.183,19.017-46.811l-29.257-43.886l54.126-52.663L153.6,86.309c14.629-8.777,30.72-14.629,46.811-19.017
		l10.24-51.2h76.069l10.24,49.737c16.091,4.389,32.183,10.24,46.811,19.017l43.886-29.257L440.32,109.714z"/>
</g>
<g>
</g>
<g>
</g>
<g>
</g>
<g>
</g>
<g>
</g>
<g>
</g>
<g>
</g>
<g>
</g>
<g>
</g>
<g>
</g>
<g>
</g>
<g>
</g>
<g>
</g>
<g>
</g>
<g>
</g>
</svg>
